<?xml version="1.0" encoding="UTF-8" standalone="no"?>
<svg
   xmlns:dc="http://purl.org/dc/elements/1.1/"
   xmlns:cc="http://creativecommons.org/ns#"
   xmlns:rdf="http://www.w3.org/1999/02/22-rdf-syntax-ns#"
   xmlns:svg="http://www.w3.org/2000/svg"
   xmlns="http://www.w3.org/2000/svg"
   version="1.1"
   id="svg4900"
   viewBox="0 0 512.00001 512.00001"
   height="512"
   width="512">
  <defs
     id="defs4902" />
  <metadata
     id="metadata4905">
    <rdf:RDF>
      <cc:Work
         rdf:about="">
        <dc:format>image/svg+xml</dc:format>
        <dc:type
           rdf:resource="http://purl.org/dc/dcmitype/StillImage" />
        <dc:title></dc:title>
      </cc:Work>
    </rdf:RDF>
  </metadata>
  <g
     transform="translate(0,-540.36216)"
     id="layer1">
    <g
       transform="matrix(0.33662301,0,0,0.33662301,174.04183,734.09652)"
       id="g5450">
      <path
         style="fill:#ffffff;fill-opacity:1;opacity:0.877"
         d="m 435.317,115.545 -20.144,0 C 429.634,103.563 438.862,85.476 438.862,65.273 438.862,29.281 409.581,0 373.59,0 356.355,0 340.098,6.659 327.8,18.763 L 271.251,74.659 C 265.346,60.448 251.324,50.426 235,50.426 c -16.323,0 -30.346,10.022 -36.25,24.234 L 142.189,18.753 C 129.903,6.66 113.645,0 96.41,0 60.419,0 31.138,29.281 31.138,65.272 c 0,20.203 9.228,38.29 23.689,50.272 l -20.144,0 c -4.142,0 -7.5,3.358 -7.5,7.5 l 0,100 c 0,4.142 3.358,7.5 7.5,7.5 l 12.5,0 0,231.956 c 0,4.142 3.358,7.5 7.5,7.5 l 360.635,0 c 4.143,0 7.5,-3.358 7.5,-7.5 l 0,-231.955 12.5,0 c 4.143,0 7.5,-3.358 7.5,-7.5 l 0,-100 c -10e-4,-4.142 -3.358,-7.5 -7.501,-7.5 z M 338.333,29.442 C 347.796,20.129 360.316,15 373.59,15 c 27.721,0 50.272,22.552 50.272,50.272 0,27.72 -22.552,50.272 -50.272,50.272 l -99.351,0 0,-22.747 64.094,-63.355 z M 192.5,130.545 l 35,0 0,172.5 c 0,4.142 3.358,7.5 7.5,7.5 4.142,0 7.5,-3.358 7.5,-7.5 l 0,-172.5 35,0 0,219.253 -38.641,-23.185 c -2.375,-1.425 -5.343,-1.425 -7.718,0 l -38.641,23.185 0,-219.253 z M 235,65.426 c 13.365,0 24.239,10.874 24.239,24.239 l 0,25.88 -48.478,0 0,-25.88 c 0,-13.366 10.874,-24.239 24.239,-24.239 z M 46.138,65.272 C 46.138,37.552 68.69,15 96.41,15 c 13.273,0 25.794,5.129 35.246,14.431 l 64.105,63.365 0,22.748 -99.351,0 C 68.69,115.545 46.138,92.993 46.138,65.272 Z m 381.679,150.273 -112.817,0 c -4.143,0 -7.5,3.358 -7.5,7.5 0,4.142 3.357,7.5 7.5,7.5 l 92.817,0 0,224.455 -345.634,0 0,-224.455 92.817,0 c 4.142,0 7.5,-3.358 7.5,-7.5 0,-4.142 -3.358,-7.5 -7.5,-7.5 l -112.817,0 0,-85 135.317,0 0,232.5 c 0,2.702 1.454,5.195 3.805,6.526 2.352,1.332 5.237,1.295 7.554,-0.095 L 235,341.792 l 46.142,27.685 c 1.187,0.712 2.521,1.069 3.858,1.069 1.273,0 2.548,-0.324 3.695,-0.974 2.352,-1.331 3.805,-3.824 3.805,-6.526 l 0,-232.5 135.317,0 0,84.999 z"
         id="path5452" />
      <path
         style="opacity:0.877;fill:#ffffff;fill-opacity:1"
         d="m 96.41,30 c -19.449,0 -35.272,15.823 -35.272,35.272 0,4.142 3.358,7.5 7.5,7.5 4.142,0 7.5,-3.358 7.5,-7.5 C 76.138,54.094 85.232,45 96.41,45 c 4.142,0 7.5,-3.358 7.5,-7.5 0,-4.142 -3.358,-7.5 -7.5,-7.5 z"
         id="path5454" />
    </g>
    <g
       style="fill:#ffffff;fill-opacity:1;opacity:0.877"
       transform="matrix(8.6650201,0,0,8.6650201,38.683367,573.87051)"
       id="g5504">
      <path
         style="fill:#ffffff;fill-opacity:1"
         d="m 48.856,22.731 c 0.983,-0.958 1.33,-2.364 0.906,-3.671 C 49.337,17.753 48.23,16.82 46.87,16.622 L 34.778,14.865 C 34.263,14.79 33.818,14.467 33.588,14 L 28.182,3.043 C 27.575,1.812 26.343,1.047 24.97,1.047 c -1.372,0 -2.604,0.765 -3.211,1.996 L 16.352,14 c -0.23,0.467 -0.676,0.79 -1.191,0.865 L 3.069,16.623 c -1.359,0.197 -2.466,1.13 -2.891,2.437 -0.424,1.307 -0.077,2.713 0.906,3.671 l 8.749,8.528 c 0.373,0.364 0.544,0.888 0.456,1.4 L 8.224,44.702 c -0.232,1.353 0.313,2.694 1.424,3.502 1.11,0.809 2.555,0.914 3.772,0.273 l 10.814,-5.686 c 0.461,-0.242 1.011,-0.242 1.472,0 l 10.815,5.686 c 0.528,0.278 1.1,0.415 1.669,0.415 0.739,0 1.475,-0.231 2.103,-0.688 1.111,-0.808 1.656,-2.149 1.424,-3.502 L 39.651,32.66 c -0.088,-0.513 0.083,-1.036 0.456,-1.4 l 8.749,-8.529 z M 37.681,32.998 39.746,45.04 c 0.104,0.606 -0.131,1.185 -0.629,1.547 -0.499,0.361 -1.12,0.405 -1.665,0.121 L 26.637,41.021 C 26.116,40.748 25.542,40.61 24.97,40.61 c -0.572,0 -1.145,0.138 -1.667,0.412 L 12.49,46.708 c -0.547,0.284 -1.168,0.24 -1.666,-0.121 -0.498,-0.362 -0.732,-0.94 -0.629,-1.547 L 12.26,32.998 c 0.199,-1.162 -0.186,-2.348 -1.03,-3.17 L 2.48,21.299 C 2.039,20.869 1.889,20.263 2.08,19.678 2.27,19.092 2.747,18.69 3.356,18.601 l 12.091,-1.757 c 1.167,-0.169 2.176,-0.901 2.697,-1.959 L 23.551,3.928 c 0.272,-0.552 0.803,-0.881 1.418,-0.881 0.616,0 1.146,0.329 1.419,0.881 l 5.407,10.957 c 0.521,1.058 1.529,1.79 2.696,1.959 l 12.092,1.757 c 0.609,0.089 1.086,0.491 1.276,1.077 0.19,0.585 0.041,1.191 -0.4,1.621 l -8.749,8.528 c -0.844,0.823 -1.229,2.008 -1.029,3.171 z"
         id="path5466" />
      <g
         style="fill:#ffffff;fill-opacity:1"
         id="g5468" />
      <g
         style="fill:#ffffff;fill-opacity:1"
         id="g5470" />
      <g
         style="fill:#ffffff;fill-opacity:1"
         id="g5472" />
      <g
         style="fill:#ffffff;fill-opacity:1"
         id="g5474" />
      <g
         style="fill:#ffffff;fill-opacity:1"
         id="g5476" />
      <g
         style="fill:#ffffff;fill-opacity:1"
         id="g5478" />
      <g
         style="fill:#ffffff;fill-opacity:1"
         id="g5480" />
      <g
         style="fill:#ffffff;fill-opacity:1"
         id="g5482" />
      <g
         style="fill:#ffffff;fill-opacity:1"
         id="g5484" />
      <g
         style="fill:#ffffff;fill-opacity:1"
         id="g5486" />
      <g
         style="fill:#ffffff;fill-opacity:1"
         id="g5488" />
      <g
         style="fill:#ffffff;fill-opacity:1"
         id="g5490" />
      <g
         style="fill:#ffffff;fill-opacity:1"
         id="g5492" />
      <g
         style="fill:#ffffff;fill-opacity:1"
         id="g5494" />
      <g
         style="fill:#ffffff;fill-opacity:1"
         id="g5496" />
    </g>
  </g>
</svg>
